<svg xmlns="http://www.w3.org/2000/svg" viewBox="0 0 169.41 38.65"><path d="M61.91 23.34h6.82v2.77H58.54V10.2h3.36v13.14Zm19.6-3.15c0 3.68-2.25 6.16-5.88 6.16s-5.88-2.48-5.88-6.16 2.25-6.17 5.88-6.17 5.88 2.47 5.88 6.17Zm-3.36-.02c0-2.08-.86-3.62-2.49-3.62s-2.53 1.54-2.53 3.62.85 3.61 2.53 3.61 2.49-1.53 2.49-3.61Zm12.79-5.99h3.29v12.05c0 3.05-2.42 4.61-5.84 4.61-3.22 0-5.06-1.45-5.46-3.33l3.06-.41c.43.95 1.44 1.5 2.47 1.36 1.44 0 2.49-.64 2.49-2.28V24h-.14a3.446 3.446 0 0 1-3.4 1.94c-2.69 0-4.84-1.85-4.84-5.82s2.22-6.1 4.83-6.1c1.48-.06 2.84.8 3.41 2.16h.12v-2.01Zm.03 5.93c0-2.09-.9-3.45-2.51-3.45s-2.51 1.42-2.51 3.45.89 3.35 2.51 3.35c1.6 0 2.51-1.24 2.51-3.35Zm16.51.09c0 3.68-2.25 6.16-5.88 6.16s-5.88-2.48-5.88-6.16 2.25-6.17 5.88-6.17 5.88 2.47 5.88 6.17Zm-3.36-.02c0-2.08-.85-3.62-2.49-3.62s-2.53 1.54-2.53 3.62.85 3.61 2.53 3.61 2.49-1.53 2.49-3.61Zm4.86 5.95h3.31V14.18h-3.31v11.94Zm1.5-16.77c-.86.08-1.53.76-1.62 1.62.03.95.83 1.7 1.78 1.68.96.03 1.76-.72 1.8-1.68-.1-.99-.98-1.71-1.97-1.62Zm15.45 10.82c0 3.99-2.12 6.15-4.84 6.15-1.46.07-2.8-.77-3.39-2.11h-.1v6.39h-3.31V14.18h3.26v2h.15a3.518 3.518 0 0 1 3.4-2.16c2.62 0 4.83 2.04 4.83 6.14Zm-3.38-.02c0-2.07-.87-3.49-2.51-3.49s-2.51 1.36-2.51 3.49.92 3.53 2.51 3.53c1.62 0 2.51-1.45 2.51-3.53Zm11.69-.96-2.16-.43c-1.11-.24-1.52-.62-1.52-1.2 0-.72.8-1.18 1.83-1.18.92-.1 1.77.5 2 1.4l3.03-.18c-.3-2.2-2.07-3.56-5.08-3.56s-5.07 1.42-5.06 3.72c0 1.79 1.12 2.95 3.45 3.41l2.07.41c1.04.21 1.52.59 1.53 1.19-.01.71-.78 1.21-1.94 1.21-1 .14-1.94-.5-2.17-1.48l-3.26.17c.31 2.28 2.25 3.69 5.42 3.69s5.31-1.58 5.32-3.93c0-1.72-1.14-2.76-3.45-3.23Zm12.53 1.85c.11 1.24-.81 2.33-2.05 2.43h-.23c-1.13.02-2.06-.88-2.08-2.01 0-.09 0-.19.01-.28v-7.01h-3.31v7.6c0 2.79 1.64 4.49 4.04 4.49 1.58.09 3.04-.85 3.62-2.32h.12v2.17h3.18V14.18h-3.31v6.85Zm18.88-7.01c-1.56-.1-3.01.81-3.6 2.26h-.12a3.147 3.147 0 0 0-3.24-2.26c-1.49-.07-2.84.85-3.33 2.26h-.14v-2.11h-3.16v11.94h3.32v-7.16c-.11-1.1.69-2.08 1.79-2.19h.15c.97-.04 1.79.72 1.83 1.69V26.15h3.21v-7.29A1.85 1.85 0 0 1 164 16.8c.09-.01.18-.01.28-.01.98-.05 1.81.71 1.86 1.68 0 .1 0 .2-.01.31v7.38h3.3v-8.03c0-2.59-1.54-4.07-3.76-4.07ZM34.19 0H17.34a5.223 5.223 0 0 0-4.82 3.65L0 38.65h13.7a18.318 18.318 0 0 1-3.05-10.23c0-8.51 5.58-15.56 12.87-16.84l1.23-3.45 1.01-2.83 2.23 6.23c7.43 1.14 13.16 8.27 13.16 16.89.02 3.64-1.04 7.2-3.05 10.23h13.42L39 3.65A5.2 5.2 0 0 0 34.19 0ZM25.9 13.64c-7.3 0-13.22 6.62-13.22 14.78-.02 3.26.96 6.44 2.81 9.11a17.476 17.476 0 0 1 20.81 0c1.85-2.68 2.84-5.86 2.82-9.12 0-8.16-5.92-14.78-13.22-14.78ZM15.5 37.53Z"/></svg>