<svg xmlns="http://www.w3.org/2000/svg" viewBox="0 0 91.22 63.85"><path d="M3.65 45.61h2.26v13.75H3.65V45.61Zm13.12 9.1a4.797 4.797 0 0 1-4.74 4.87h-.48a4.542 4.542 0 0 1-4.27-4.8c0-.16-.01-.32 0-.48a4.541 4.541 0 0 1 4.75-4.33c2.6.04 4.7 2.14 4.74 4.74Zm-4.44-2.11c-1.37-.16-2.61.81-2.77 2.18 0 .09-.02.17-.02.26a2.505 2.505 0 0 0 2.49 2.53c1.26 0 2.33-.94 2.48-2.2.16-1.37-.81-2.61-2.18-2.77Zm14.75 6.31c.02.22.02.44 0 .66a4.58 4.58 0 0 1-4.85 4.3 4.41 4.41 0 0 1-4.64-3.94h2.27v.02c.18 1.2 1.29 2.04 2.49 1.86h.36a2.33 2.33 0 0 0 2.15-2.5v-1.55c-.71.96-1.86 1.49-3.05 1.42-.13 0-.26 0-.39-.01a4.239 4.239 0 0 1-3.89-4.57c0-.12-.01-.24-.01-.36a4.34 4.34 0 0 1 4.37-4.3c1.22-.07 2.38.51 3.05 1.53l.13-1.24h2v8.67Zm-2.28-4.58a2.503 2.503 0 0 0-2.59-2.41h-.2c-1.33.12-2.3 1.29-2.18 2.62v.15a2.46 2.46 0 0 0 2.39 2.53h.19a2.54 2.54 0 0 0 2.39-2.68v-.22Zm12.88.39a4.797 4.797 0 0 1-4.74 4.87h-.48a4.542 4.542 0 0 1-4.27-4.8c0-.16-.01-.32 0-.48a4.541 4.541 0 0 1 4.75-4.33c2.6.04 4.7 2.14 4.74 4.74Zm-4.44-2.11c-1.37-.16-2.61.81-2.77 2.18 0 .09-.02.17-.02.26a2.512 2.512 0 0 0 2.49 2.53c1.26 0 2.33-.94 2.48-2.2.16-1.37-.81-2.61-2.18-2.77Zm6.89-6.91a1.34 1.34 0 1 0 0 2.68 1.34 1.34 0 0 0 0-2.68ZM39 59.38h2.26v-9.13H39v9.13Zm13.88-4.68c.04 2.85-1.57 4.92-4.27 4.92-1.25.07-2.44-.49-3.18-1.5v5.49h-2.2V50.25h2.03l.13 1.39a3.51 3.51 0 0 1 3.2-1.66c2.59 0 4.23 1.87 4.29 4.73Zm-1.79-.12a2.783 2.783 0 0 0-3-2.56c-.1 0-.2 0-.3.01a2.538 2.538 0 0 0-2.27 2.78v.21a2.783 2.783 0 0 0 3 2.56 2.783 2.783 0 0 0 2.56-3Zm7.3-.45-1.61-.39c-.68-.18-1.15-.42-1.15-1.02 0-.63.5-1.07 1.31-1.07.69-.08 1.31.41 1.39 1.09 0 .06.01.12 0 .18h2.05a3.072 3.072 0 0 0-3.17-2.97c-.08 0-.15 0-.23.02-1.96 0-3.42 1.15-3.42 2.88 0 1.18.68 2.16 2.44 2.62l1.59.41c.59.17.96.44.96.96 0 .72-.68 1.05-1.52 1.05-1 0-1.57-.46-1.57-1.26h-2.04c.07 1.81 1.48 2.98 3.66 2.98s3.6-1.15 3.6-2.92c0-1.32-1-2.42-2.31-2.57Zm9.95.9c0 1.65-.63 2.57-2.11 2.57-1.15 0-1.94-.55-1.94-2.44v-4.92h-2.25v5.71c0 2.18 1.18 3.66 3.34 3.66 1.16.04 2.26-.49 2.96-1.42l.15 1.19h2.11v-9.13h-2.26v4.79Zm15.56-5.06a2.74 2.74 0 0 0-.64 0 3 3 0 0 0-2.92 1.74 3.33 3.33 0 0 0-5.58-.42l-.11-1.04h-2.07v9.13h2.25v-5.25a1.91 1.91 0 0 1 1.63-2.16c.1-.01.2-.02.31-.02 1.07 0 1.77.68 1.77 1.98v5.45h2.2v-5.23c0-1.5.85-2.2 1.92-2.2.95-.05 1.76.69 1.81 1.64 0 .11 0 .23-.02.34v5.45h2.18v-5.97a3.104 3.104 0 0 0-2.75-3.43ZM45.61 13.68c.61 6.83 2.63 13.47 5.94 19.48 2.97 5.34 9.02 7.89 15.13 7.89h24.53C65.67 37.86 47.88 25.09 45.6 7.3 43.33 25.08 25.54 37.85 0 41.05h24.53c6.12 0 12.17-2.54 15.13-7.89a49.474 49.474 0 0 0 5.94-19.48ZM25.64 31.27c-1.4-5.66-.43-11.65 2.67-16.58 1.83-2.9 4.34-5.3 7.31-6.99 6-3.41 13.32-3.52 19.42-.3 3.02 1.6 5.61 3.92 7.52 6.76a21.477 21.477 0 0 1 3.02 17.11c1.43.81 2.94 1.56 4.52 2.27 2.19-7.57.92-15.72-3.47-22.26a25.71 25.71 0 0 0-9.32-8.38c-7.56-4-16.64-3.86-24.08.37-3.69 2.1-6.81 5.08-9.07 8.67a26.627 26.627 0 0 0-3.04 21.6c1.58-.71 3.09-1.46 4.52-2.27Z"/></svg>