<svg xmlns="http://www.w3.org/2000/svg" viewBox="0 0 180 40"><path d="M46.26 25.84v1.05c0 .53-.2.72-.72.72h-8.07c-.53 0-.74-.2-.74-.72V13.2c0-.53.21-.72.74-.72h1.22c.54 0 .72.2.72.72v11.92h6.13c.53 0 .72.2.72.72Zm16.88-8.11v4.64c0 3.48-2.21 5.57-6.02 5.57s-6.02-2.09-6.02-5.57v-4.64c0-3.48 2.2-5.57 6.02-5.57s6.02 2.09 6.02 5.57Zm-2.53 0c0-1.96-1.22-3.01-3.42-3.01s-3.4 1.07-3.4 3.01v4.67c0 1.97 1.2 3.01 3.4 3.01s3.42-1.08 3.42-3.01v-4.67Zm19.85 1.6h-5.1c-.54 0-.74.2-.74.72v1.02c0 .53.2.74.74.74h3.26v1.11c0 1.48-1.35 2.49-3.55 2.49s-3.42-1.04-3.42-3.01v-4.79c0-1.94 1.2-3.01 3.42-3.01a3.09 3.09 0 0 1 3.26 1.95c.18.53.39.63.9.45l1.17-.41a.645.645 0 0 0 .46-.93c-.83-2.38-2.79-3.57-5.8-3.57-3.82 0-6.02 2.11-6.02 5.54v4.67c0 3.48 2.12 5.57 6.02 5.57 1.63.11 3.24-.4 4.52-1.41a4.53 4.53 0 0 0 1.6-3.55v-2.86c0-.52-.13-.72-.72-.72Zm18.38-1.6v4.64c0 3.48-2.21 5.57-6.02 5.57s-6.02-2.09-6.02-5.57v-4.64c0-3.48 2.2-5.57 6.02-5.57s6.02 2.09 6.02 5.57Zm-2.54 0c0-1.96-1.22-3.01-3.4-3.01s-3.42 1.07-3.42 3.01v4.67c0 1.97 1.22 3.01 3.42 3.01s3.4-1.08 3.4-3.01v-4.67Zm10.34-5.25h-.69c-.33 0-.44.1-.44.44v14.27c0 .33.11.44.44.44h.69c.41 0 .41-.1.41-.44V12.91c0-.33-.08-.44-.41-.44Zm18.37 4.73c0 2.61-2.12 4.73-4.73 4.73h-4.52v5.25c0 .33-.08.44-.39.44h-.71c-.32 0-.44-.1-.44-.44V12.91c0-.33.12-.44.44-.44h5.61c2.61 0 4.73 2.12 4.73 4.73Zm-1.58-.05c0-1.81-1.47-3.28-3.28-3.28h-4.52v6.56h4.52c1.81 0 3.28-1.47 3.28-3.28Zm16.27 2.72c-.97-.35-1.98-.56-3.01-.62-.85-.06-1.69-.22-2.5-.48a2.289 2.289 0 0 1-1.91-2.32c0-1.81 1.38-2.82 3.93-2.82 1.77-.17 3.45.83 4.15 2.47.17.29.27.3.54.2l.66-.3c.24-.12.36-.32.24-.56a5.439 5.439 0 0 0-5.6-3.28c-3.48 0-5.45 1.72-5.55 4.35-.05 1.09.39 2.14 1.2 2.88.4.32.85.56 1.34.71.49.16 1 .3 1.51.41l1.62.21c.81.05 1.61.19 2.39.42 1.07.23 1.81 1.21 1.76 2.3 0 2.02-1.4 3.01-4.24 3.01-1.87.13-3.61-.96-4.3-2.71v-.03c-.1-.21-.33-.31-.54-.22l-.66.24s-.05.02-.07.03c-.2.1-.28.34-.19.54a5.443 5.443 0 0 0 5.77 3.66c3.76 0 5.81-1.7 5.81-4.52.16-1.59-.82-3.08-2.35-3.57Zm18.66-7.41h-.69c-.33 0-.44.1-.44.44v9.56a4.19 4.19 0 0 1-3.94 3.94 4.185 4.185 0 0 1-4.42-3.94V12.9c0-.33-.11-.44-.42-.44h-.71c-.32 0-.42.1-.42.44v9.54c0 3.42 2.02 5.48 5.73 5.48s5.74-2.06 5.74-5.48V12.9c0-.33-.11-.44-.44-.44Zm21.21.02-.62.08c-.33 0-.42.04-.59.36l-5.24 9.27-5.27-9.36a.615.615 0 0 0-.6-.35h-.54c-.33 0-.44.1-.44.44v14.26c0 .33.1.44.44.44h.59c.33 0 .44-.11.44-.44v-8.67c0-1.27-.09-2.54-.24-3.81h.09c.42 1.13.92 2.23 1.51 3.28l3.28 5.76c.09.2.29.33.51.33h.42c.22 0 .42-.13.5-.33l3.24-5.7c.62-1.07 1.17-2.18 1.64-3.33h.09c-.17 1.25-.26 2.51-.26 3.78v8.68c0 .33.11.44.42.44h.63c.33 0 .44-.1.44-.44V12.91c0-.33-.11-.44-.44-.44ZM5.07 28.35v10.18c0 .4.17.77.46 1.04.63.58 1.6.58 2.24 0 .29-.27.46-.65.46-1.04V28.42c-.5.3-1.08.44-1.66.41-.54-.01-1.06-.18-1.51-.48Zm6.31-3.95h.34c.37 0 .72-.13.99-.38.26-.24.41-.57.41-.92V8.08c0-.35-.15-.69-.41-.93-.27-.25-.62-.39-.99-.39h-.35a1.436 1.436 0 0 0-1 .39c-.13.12-.23.27-.3.43-.07.16-.1.33-.1.5V23.1c0 .35.15.69.41.92.27.25.62.38.99.38Zm-4.97 3.34h.33v.03c.38 0 .74-.14 1.01-.39.26-.24.41-.58.41-.93V4.7c0-.35-.16-.69-.42-.92-.27-.25-.63-.38-1-.38h-.33c-.37 0-.73.13-1 .38a1.3 1.3 0 0 0-.42.92v21.72c0 .35.15.69.41.93.27.25.63.39 1 .39Zm3.58-2.75v10.14c0 .39.17.77.46 1.04.63.57 1.59.57 2.22 0 .29-.27.46-.64.46-1.04V24.98c-.48.34-1.06.51-1.64.49-.54-.01-1.06-.18-1.51-.48ZM1.74 0h-.33c-.36 0-.72.13-1 .38C.16.62 0 .95 0 1.31v28.51c0 .36.15.69.41.93.27.25.63.39 1 .39h.33c.37 0 .73-.14 1-.39.26-.24.41-.58.41-.93V1.31c0-.35-.16-.69-.42-.92A1.39 1.39 0 0 0 1.74 0Zm21.01 19.41c-.16-.14-.35-.25-.55-.31-.21-.07-.42-.09-.64-.07l.07-.02c-.2 0-.41.02-.6.09-.19.07-.36.17-.51.3-.15.13-.26.29-.35.46-.08.17-.12.36-.12.55v7.82c0 .4.17.77.46 1.04.63.58 1.6.58 2.23 0 .29-.27.46-.65.46-1.04v-7.72c.01-.2-.02-.41-.1-.59-.08-.19-.2-.36-.36-.5Zm4.98 3.02c-.16-.14-.34-.25-.55-.31-.2-.07-.42-.09-.64-.07-.39 0-.77.15-1.06.41-.28.26-.44.62-.44.99v1.77c0 .39.17.77.46 1.04.63.57 1.59.57 2.22 0 .29-.27.46-.64.46-1.04v-1.7a1.337 1.337 0 0 0-.46-1.09Zm-6.35-4.49h.34c.37 0 .72-.14.99-.39.26-.24.41-.58.41-.93v-2.09c0-.35-.16-.69-.42-.92-.27-.25-.63-.39-1-.38h-.32c-.37 0-.73.13-1 .38a1.3 1.3 0 0 0-.42.92v2.09c0 .36.15.69.41.93.27.25.63.39 1 .39ZM16.63 22c-.56 0-1.11-.17-1.58-.48v10.21c0 .4.17.77.46 1.04.63.58 1.6.58 2.23 0 .29-.27.46-.65.46-1.04V21.54c-.49.33-1.07.51-1.66.49l.08-.03Zm-.24-1.04h.33c.19 0 .37-.03.54-.1.17-.07.33-.16.46-.29.13-.12.23-.27.31-.43.07-.16.1-.33.1-.51v-8.15c0-.36-.15-.69-.41-.93-.27-.25-.63-.39-1-.39h-.33c-.19 0-.38.04-.56.11-.18.07-.34.17-.47.31-.13.13-.23.29-.3.46-.07.17-.09.35-.08.53v8.09c0 .35.16.69.42.92.27.25.63.38 1 .38Z"/></svg>